# 3ds Max Wavefront OBJ Exporter v0.97b - (c)2007 guruware
# File Created: 11.01.2019 00:06:58

mtllib caudal-fin.mtl

#
# object Box001
#

v  -0.2089 -1.3756 -0.0000
v  -0.2089 -2.8490 -1.8842
v  0.2089 -2.8490 -1.8842
v  0.2089 -1.3756 -0.0000
v  -0.2089 -3.7426 -4.2076
v  0.2089 -3.7426 -4.2076
v  -0.2089 -4.0430 -5.7099
v  0.2089 -4.0430 -5.7099
v  0.0000 -4.0430 -6.9231
v  -0.2089 1.3745 -0.0000
v  0.2089 1.3745 -0.0000
v  0.2089 2.8478 -1.8842
v  -0.2089 2.8478 -1.8842
v  0.2089 3.7414 -4.2076
v  -0.2089 3.7414 -4.2076
v  0.2089 4.0419 -5.7099
v  -0.2089 4.0419 -5.7099
v  0.0000 4.0419 -6.9231
v  0.2089 -0.9173 -0.0000
v  -0.2089 -0.9173 -0.0000
v  0.2089 -0.4589 -0.0000
v  -0.2089 -0.4589 -0.0000
v  0.2089 -0.0006 -0.0000
v  -0.2089 -0.0006 -0.0000
v  0.2089 0.4578 -0.0000
v  -0.2089 0.4578 -0.0000
v  0.2089 0.9161 -0.0000
v  -0.2089 0.9161 -0.0000
v  0.2089 -1.8995 -1.8842
v  0.2089 -2.4952 -4.2076
v  0.2089 -2.6956 -5.7099
v  0.0000 -2.6956 -6.3128
v  0.2089 -0.9500 -1.8842
v  0.2089 -1.3481 -4.2076
v  0.2089 -1.3481 -4.7729
v  0.0000 -1.3481 -5.3758
v  0.2089 -0.0006 -1.8842
v  0.2089 -0.0006 -3.4609
v  0.2089 -0.0006 -4.0262
v  0.0000 -0.0006 -4.6290
v  0.2089 0.9489 -1.8842
v  0.2089 1.3469 -4.2076
v  0.2089 1.3469 -4.7729
v  0.0000 1.3469 -5.3758
v  0.2089 1.8983 -1.8842
v  0.2089 2.4941 -4.2076
v  0.2089 2.6944 -5.7099
v  0.0000 2.6944 -6.3128
v  -0.2089 -2.6956 -5.7099
v  -0.2089 -2.4952 -4.2076
v  -0.2089 -1.8995 -1.8842
v  -0.2089 -1.3481 -4.7729
v  -0.2089 -1.3481 -4.2076
v  -0.2089 -0.9500 -1.8842
v  -0.2089 -0.0006 -4.0262
v  -0.2089 -0.0006 -3.4609
v  -0.2089 -0.0006 -1.8842
v  -0.2089 1.3469 -4.7729
v  -0.2089 1.3469 -4.2076
v  -0.2089 0.9489 -1.8842
v  -0.2089 2.6944 -5.7099
v  -0.2089 2.4941 -4.2076
v  -0.2089 1.8983 -1.8842
# 63 vertices

vn -0.6204 -0.3443 0.7047
vn -0.6754 -0.6422 0.3625
vn 0.6754 -0.6422 0.3625
vn 0.6204 -0.3443 0.7047
vn -0.6887 -0.6966 0.2013
vn 0.6887 -0.6966 0.2013
vn -0.7169 -0.6948 -0.0577
vn 0.7169 -0.6948 -0.0577
vn 0.0000 -0.3928 -0.9196
vn -0.6204 0.3443 0.7047
vn 0.6204 0.3443 0.7047
vn 0.6754 0.6422 0.3625
vn -0.6754 0.6422 0.3625
vn 0.6887 0.6966 0.2013
vn -0.6887 0.6966 0.2013
vn 0.7169 0.6947 -0.0577
vn -0.7169 0.6947 -0.0577
vn 0.0000 0.3928 -0.9196
vn 0.7071 0.0000 0.7071
vn -0.7071 0.0000 0.7071
vn 1.0000 0.0000 -0.0000
vn 0.9250 0.1355 -0.3550
vn 0.0000 0.4756 -0.8797
vn 0.9418 0.1743 -0.2876
vn 0.0000 0.5425 -0.8401
vn 0.9766 0.0000 -0.2149
vn 0.0000 0.0000 -1.0000
vn 0.9418 -0.1743 -0.2876
vn 0.0000 -0.5425 -0.8401
vn 0.9250 -0.1355 -0.3550
vn 0.0000 -0.4756 -0.8797
vn -0.9250 0.1355 -0.3550
vn -1.0000 0.0000 -0.0000
vn -0.9418 0.1743 -0.2876
vn -0.9766 0.0000 -0.2149
vn -0.9418 -0.1743 -0.2876
vn -0.9250 -0.1355 -0.3550
# 37 vertex normals

vt 1.0000 0.0000 0.0000
vt 1.0000 0.2500 0.0000
vt 0.0000 0.2500 0.0000
vt 0.0000 0.0000 0.0000
vt 1.0000 0.5000 0.0000
vt 0.0000 0.5000 0.0000
vt 1.0000 0.7500 0.0000
vt 0.0000 0.7500 0.0000
vt 0.5000 1.0000 0.0000
vt 1.0000 0.1667 0.0000
vt 0.0000 0.1667 0.0000
vt 1.0000 0.3333 0.0000
vt 0.0000 0.3333 0.0000
vt 1.0000 0.6667 0.0000
vt 0.0000 0.6667 0.0000
vt 1.0000 0.8333 0.0000
vt 0.0000 0.8333 0.0000
vt 1.0000 1.0000 0.0000
vt 0.0000 1.0000 0.0000
vt 0.2500 0.0000 0.0000
vt 0.2500 0.1667 0.0000
vt 0.5000 0.0000 0.0000
vt 0.5000 0.1667 0.0000
vt 0.7500 0.0000 0.0000
vt 0.7500 0.1667 0.0000
vt 0.2500 0.3333 0.0000
vt 0.5000 0.3333 0.0000
vt 0.7500 0.3333 0.0000
vt 0.2500 0.5000 0.0000
vt 0.5000 0.5000 0.0000
vt 0.7500 0.5000 0.0000
vt 0.2500 0.6667 0.0000
vt 0.5000 0.6667 0.0000
vt 0.7500 0.6667 0.0000
vt 0.2500 0.8333 0.0000
vt 0.5000 0.8333 0.0000
vt 0.7500 0.8333 0.0000
vt 0.2500 1.0000 0.0000
vt 0.7500 1.0000 0.0000
# 39 texture coords

o Box001
g Box001
usemtl wire_087225143
s 2
f 1/1/1 2/2/2 3/3/3 4/4/4 
f 2/2/2 5/5/5 6/6/6 3/3/3 
f 5/5/5 7/7/7 8/8/8 6/6/6 
f 7/7/7 9/9/9 8/8/8 
s 4
f 10/4/10 11/1/11 12/2/12 13/3/13 
f 13/3/13 12/2/12 14/5/14 15/6/15 
f 15/6/15 14/5/14 16/7/16 17/8/17 
f 17/8/17 16/7/16 18/9/18 
s 8
f 1/4/1 4/1/4 19/10/19 20/11/20 
f 20/11/20 19/10/19 21/12/19 22/13/20 
f 22/13/20 21/12/19 23/5/19 24/6/20 
f 24/6/20 23/5/19 25/14/19 26/15/20 
f 26/15/20 25/14/19 27/16/19 28/17/20 
f 28/17/20 27/16/19 11/18/11 10/19/10 
s 16
f 4/4/4 3/20/3 29/21/21 19/11/19 
f 3/20/3 6/22/6 30/23/21 29/21/21 
f 6/22/6 8/24/8 31/25/22 30/23/21 
f 8/24/8 9/1/9 32/10/23 31/25/22 
f 19/11/19 29/21/21 33/26/21 21/13/19 
f 29/21/21 30/23/21 34/27/21 33/26/21 
f 30/23/21 31/25/22 35/28/24 34/27/21 
f 31/25/22 32/10/23 36/12/25 35/28/24 
f 21/13/19 33/26/21 37/29/21 23/6/19 
f 33/26/21 34/27/21 38/30/21 37/29/21 
f 34/27/21 35/28/24 39/31/26 38/30/21 
f 35/28/24 36/12/25 40/5/27 39/31/26 
f 23/6/19 37/29/21 41/32/21 25/15/19 
f 37/29/21 38/30/21 42/33/21 41/32/21 
f 38/30/21 39/31/26 43/34/28 42/33/21 
f 39/31/26 40/5/27 44/14/29 43/34/28 
f 25/15/19 41/32/21 45/35/21 27/17/19 
f 41/32/21 42/33/21 46/36/21 45/35/21 
f 42/33/21 43/34/28 47/37/30 46/36/21 
f 43/34/28 44/14/29 48/16/31 47/37/30 
f 27/17/19 45/35/21 12/38/12 11/19/11 
f 45/35/21 46/36/21 14/9/14 12/38/12 
f 46/36/21 47/37/30 16/39/16 14/9/14 
f 47/37/30 48/16/31 18/18/18 16/39/16 
s 64
f 9/4/9 7/20/7 49/21/32 32/11/23 
f 7/20/7 5/22/5 50/23/33 49/21/32 
f 5/22/5 2/24/2 51/25/33 50/23/33 
f 2/24/2 1/1/1 20/10/20 51/25/33 
f 32/11/23 49/21/32 52/26/34 36/13/25 
f 49/21/32 50/23/33 53/27/33 52/26/34 
f 50/23/33 51/25/33 54/28/33 53/27/33 
f 51/25/33 20/10/20 22/12/20 54/28/33 
f 36/13/25 52/26/34 55/29/35 40/6/27 
f 52/26/34 53/27/33 56/30/33 55/29/35 
f 53/27/33 54/28/33 57/31/33 56/30/33 
f 54/28/33 22/12/20 24/5/20 57/31/33 
f 40/6/27 55/29/35 58/32/36 44/15/29 
f 55/29/35 56/30/33 59/33/33 58/32/36 
f 56/30/33 57/31/33 60/34/33 59/33/33 
f 57/31/33 24/5/20 26/14/20 60/34/33 
f 44/15/29 58/32/36 61/35/37 48/17/31 
f 58/32/36 59/33/33 62/36/33 61/35/37 
f 59/33/33 60/34/33 63/37/33 62/36/33 
f 60/34/33 26/14/20 28/16/20 63/37/33 
f 48/17/31 61/35/37 17/38/17 18/19/18 
f 61/35/37 62/36/33 15/9/15 17/38/17 
f 62/36/33 63/37/33 13/39/13 15/9/15 
f 63/37/33 28/16/20 10/18/10 13/39/13 
# 60 polygons - 2 triangles

