# 3ds Max Wavefront OBJ Exporter v0.97b - (c)2007 guruware
# File Created: 24.01.2019 23:39:49

mtllib caudal-fin-01.mtl

#
# object caudal001
#

v  -0.0930 -1.3756 -0.1477
v  -0.2089 -2.8490 -2.0319
v  0.2089 -2.8490 -2.0319
v  0.0930 -1.3756 -0.1477
v  -0.0930 1.3745 -0.1477
v  0.0930 1.3745 -0.1477
v  0.2089 2.8478 -2.0319
v  -0.2089 2.8478 -2.0319
v  0.0000 4.0419 -7.0708
v  -0.2089 -0.0006 -2.5330
v  0.2089 -0.0006 -2.5330
v  0.0000 -0.0006 1.0870
v  0.0000 -4.0430 -7.0708
v  0.0000 -0.0006 -4.7767
# 14 vertices

vn -0.6641 -0.4999 0.5559
vn -0.6837 -0.6599 0.3116
vn 0.6837 -0.6599 0.3116
vn 0.6641 -0.4999 0.5559
vn -0.6641 0.4999 0.5559
vn 0.6641 0.4999 0.5559
vn 0.6837 0.6599 0.3116
vn -0.6837 0.6599 0.3116
vn 0.0000 0.5281 -0.8492
vn -0.9998 -0.0000 -0.0202
vn 0.9998 -0.0000 -0.0202
vn 0.0000 0.0000 1.0000
vn 0.0000 -0.5281 -0.8492
vn 0.0000 0.0000 -1.0000
# 14 vertex normals

o caudal001
g caudal001
usemtl wire_087225143
s off
f 1//1 2//2 3//3 
f 3//3 4//4 1//1 
f 5//5 6//6 7//7 
f 7//7 8//8 5//5 
f 8//8 9//9 10//10 
f 4//4 11//11 12//12 
f 13//13 14//14 11//11 
f 2//2 1//1 10//10 
f 10//10 5//5 8//8 
f 1//1 4//4 12//12 
f 6//6 5//5 12//12 
f 1//1 12//12 10//10 
f 9//9 14//14 10//10 
f 6//6 11//11 7//7 
f 3//3 11//11 4//4 
f 2//2 13//13 3//3 
f 9//9 11//11 14//14 
f 13//13 10//10 14//14 
f 7//7 11//11 9//9 
f 8//8 7//7 9//9 
f 13//13 11//11 3//3 
f 2//2 10//10 13//13 
f 12//12 5//5 10//10 
f 11//11 6//6 12//12 
# 0 polygons - 24 triangles

