# 3ds Max Wavefront OBJ Exporter v0.97b - (c)2007 guruware
# File Created: 24.01.2019 23:39:17

mtllib dorsal-fin-01.mtl

#
# object dorsal001
#

v  0.1703 -2.0381 -5.8207
v  0.0000 -0.7177 0.1053
v  -0.1703 -2.0381 -5.8207
v  0.0000 2.2451 -4.6310
v  0.0000 -0.0344 -0.0168
v  0.1703 -0.0003 -5.1670
v  -0.1703 -0.0003 -5.1670
# 7 vertices

vn 0.5763 -0.6067 -0.5476
vn 0.0000 -0.3341 0.9425
vn -0.5763 -0.6067 -0.5476
vn 0.0000 0.9747 -0.2233
vn 0.0000 0.4251 0.9052
vn 0.7578 0.1781 -0.6277
vn -0.7578 0.1781 -0.6277
# 7 vertex normals

vt 0.5000 0.5000 0.0000
vt 1.0000 0.6667 0.0000
vt 1.0000 1.0000 0.0000
vt 0.7500 0.7500 0.0000
vt 0.5000 0.6667 0.0000
vt 0.2500 0.7500 0.0000
vt 0.0000 0.6667 0.0000
# 7 texture coords

o dorsal001
g dorsal001
usemtl wire_008008136
s off
f 1/1/1 2/2/2 3/3/3 
f 4/4/4 5/2/5 6/5/6 
f 4/6/4 7/3/7 5/7/5 
f 6/5/6 7/1/7 4/6/4 
f 7/3/7 6/1/6 1/1/1 3/3/3 
f 6/1/6 5/2/5 2/2/2 1/1/1 
f 5/2/5 7/3/7 3/3/3 2/2/2 
# 3 polygons - 4 triangles

