# 3ds Max Wavefront OBJ Exporter v0.97b - (c)2007 guruware
# File Created: 24.01.2019 23:40:03

mtllib fish-body-01.mtl

#
# object body001
#

v  0.0000 0.0000 -0.0305
v  -1.6234 0.1411 -3.1202
v  -0.0000 -1.1338 -3.1202
v  1.6234 0.1411 -3.1202
v  0.0000 1.6664 -3.1202
v  -0.0000 -1.8354 -8.5327
v  0.0000 3.5355 -8.5327
v  -1.6234 0.0000 -8.5327
v  1.6234 -0.0000 -8.5327
v  -0.8082 -0.0570 -15.4149
v  -0.0000 -1.0147 -15.4149
v  0.8082 -0.0570 -15.4149
v  0.0000 2.0906 -15.4149
v  -0.0000 -0.4529 -20.1356
v  0.0000 0.7603 -20.1356
v  -0.3329 0.0000 -20.1356
v  0.3329 -0.0000 -20.1356
v  -0.0000 0.0023 -21.1074
v  0.0000 0.4684 -20.5933
v  0.0000 0.0817 -21.1074
# 20 vertices

vn -0.0000 -0.0836 0.9979
vn -0.5277 -0.0733 0.4440
vn -0.0000 -1.2499 0.2326
vn 0.5277 -0.0733 0.4440
vn 0.0000 1.1809 0.3945
vn -0.0000 -1.2847 -0.0271
vn 0.0000 1.2838 -0.0462
vn -0.5795 -0.1921 -0.1150
vn 0.5795 -0.1922 -0.1150
vn -0.5664 -0.2392 -0.2104
vn -0.0000 -1.2762 -0.1183
vn 0.5664 -0.2392 -0.2104
vn 0.0000 1.2493 -0.2347
vn -0.0000 -1.2367 -0.2722
vn 0.0000 1.1967 -0.3647
vn -0.5449 -0.1517 -0.3655
vn 0.5449 -0.1517 -0.3655
vn -0.0000 -0.5648 -0.8982
vn 0.0000 1.0542 -0.5720
vn 0.0000 0.4982 -0.9218
# 20 vertex normals

vt 0.5000 0.9217 0.0000
vt 0.0000 0.0000 0.0000
vt 1.0000 0.0000 0.0000
vt 1.0000 1.0000 0.0000
vt 0.0000 1.0000 0.0000
vt 0.5000 1.0000 0.0000
# 6 texture coords

o body001
g body001
usemtl wire_135059008
s off
f 1/1/1 2/2/2 3/3/3 
f 1/1/1 3/2/3 4/3/4 
f 1/1/1 4/2/4 5/3/5 
f 1/1/1 5/2/5 2/3/2 
f 3/4/3 2/5/2 6/4/6 
f 2/5/2 7/2/7 8/5/8 
f 5/2/5 4/3/4 7/2/7 
f 4/3/4 6/4/6 9/3/9 
f 6/4/6 10/5/10 11/4/11 
f 8/5/8 7/2/7 10/5/10 
f 7/2/7 12/3/12 13/2/13 
f 9/3/9 6/4/6 12/3/12 
f 11/1/11 10/4/10 14/6/14 
f 10/4/10 15/5/15 16/4/16 
f 13/5/13 12/2/12 15/5/15 
f 12/2/12 14/6/14 17/2/17 
f 12/2/12 17/2/17 15/5/15 
f 12/2/12 11/1/11 14/6/14 
f 10/4/10 13/5/13 15/5/15 
f 10/4/10 16/4/16 14/6/14 
f 4/3/4 9/3/9 7/2/7 
f 4/3/4 3/4/3 6/4/6 
f 7/2/7 9/3/9 12/3/12 
f 6/4/6 11/4/11 12/3/12 
f 7/2/7 13/2/13 10/5/10 
f 6/4/6 8/5/8 10/5/10 
f 2/5/2 8/5/8 6/4/6 
f 2/5/2 5/2/5 7/2/7 
f 14/6/14 16/4/16 18/6/18 
f 16/4/16 19/5/19 20/4/20 
f 15/5/15 17/2/17 19/5/19 
f 17/2/17 18/6/18 20/2/20 
f 17/2/17 20/2/20 19/5/19 
f 17/2/17 14/6/14 18/6/18 
f 16/4/16 20/4/20 18/6/18 
f 16/4/16 15/5/15 19/5/19 
# 0 polygons - 36 triangles

