# 3ds Max Wavefront OBJ Exporter v0.97b - (c)2007 guruware
# File Created: 25.01.2019 00:12:26

mtllib fish-body-02.mtl

#
# object body002
#

v  -0.0000 -0.6852 0.1067
v  -0.4939 -0.4623 -1.1306
v  -0.0000 -1.8763 -1.4066
v  0.4939 -0.4623 -1.1306
v  0.0000 0.5101 -0.9835
v  -0.0000 -3.4535 -3.3949
v  -1.1708 -0.7024 -6.4903
v  -0.0000 -4.0117 -6.4903
v  0.0000 3.2265 -2.6533
v  1.1708 -0.7024 -6.4903
v  0.0000 4.5942 -7.3351
v  0.0000 0.0498 -11.9060
# 12 vertices

vn -0.0000 -0.1344 0.9945
vn -0.5034 -0.0325 0.5212
vn -0.0000 -1.0078 0.6206
vn 0.5034 -0.0325 0.5212
vn 0.0000 0.7409 0.8171
vn -0.0000 -1.1859 0.3854
vn -0.5834 -0.1484 -0.0971
vn -0.0000 -1.2605 -0.1951
vn 0.0000 1.0997 0.5176
vn 0.5834 -0.1484 -0.0971
vn -0.0000 1.2512 -0.2284
vn -0.0000 -0.0178 -0.9999
# 12 vertex normals

vt 0.5000 0.9217 0.0000
vt 0.0280 0.0517 0.0000
vt 0.9207 0.1462 0.0000
vt 0.0793 0.1462 0.0000
vt 0.9720 0.0517 0.0000
vt 0.9829 0.0316 0.0000
vt 0.0171 0.0316 0.0000
vt 1.0000 1.0000 0.0000
vt 0.0000 1.0000 0.0000
vt 0.0000 0.0000 0.0000
vt 1.0000 0.0000 0.0000
# 11 texture coords

o body002
g body002
usemtl wire_135059008
s off
f 1/1/1 2/2/2 3/3/3 
f 1/1/1 3/4/3 4/5/4 
f 1/1/1 4/2/4 5/6/5 
f 1/1/1 5/7/5 2/5/2 
f 6/8/6 7/9/7 8/8/8 
f 9/10/9 10/11/10 11/10/11 
f 6/8/6 4/5/4 3/4/3 
f 7/9/7 11/10/11 12/9/12 
f 10/11/10 8/8/8 12/11/12 
f 11/10/11 10/11/10 12/11/12 
f 8/8/8 7/9/7 12/9/12 
f 6/8/6 8/8/8 10/11/10 
f 9/10/9 11/10/11 7/9/7 
f 6/11/6 2/5/2 7/9/7 
f 10/11/10 9/11/9 4/5/4 
f 2/5/2 9/10/9 7/9/7 
f 9/11/9 5/6/5 4/5/4 
f 6/8/6 10/11/10 4/5/4 
f 6/11/6 3/3/3 2/5/2 
f 2/5/2 5/7/5 9/10/9 
# 0 polygons - 20 triangles

