# 3ds Max Wavefront OBJ Exporter v0.97b - (c)2007 guruware
# File Created: 11.01.2019 00:15:39

mtllib fish-body.mtl

#
# object Pyramid001
#

v  -0.0000 -0.2768 -0.0305
v  -0.1271 0.0000 -0.0305
v  -1.6234 0.0000 -4.6391
v  -0.0000 -3.5355 -4.6391
v  0.1271 -0.0000 -0.0305
v  1.6234 -0.0000 -4.6391
v  0.0000 0.2768 -0.0305
v  0.0000 3.5355 -4.6391
v  -1.6234 0.0000 -14.2510
v  -0.0000 -3.5355 -14.2510
v  0.0000 3.5355 -14.2510
v  1.6234 -0.0000 -14.2510
v  -0.8082 0.0000 -18.6965
v  -0.0000 -1.7601 -18.6965
v  0.0000 1.7601 -18.6965
v  0.8082 -0.0000 -18.6965
v  0.3329 -0.0000 -20.1356
v  -0.0000 -0.7603 -20.1356
v  -0.3329 0.0000 -20.1356
v  0.0000 0.7603 -20.1356
# 20 vertices

vn -0.0000 -0.7721 0.7994
vn -0.3545 0.0000 0.7994
vn -0.5683 0.0000 0.2695
vn -0.0000 -1.2377 0.2695
vn 0.3545 -0.0000 0.7994
vn 0.5683 -0.0000 0.2695
vn 0.0000 0.7721 0.7994
vn 0.0000 1.2377 0.2695
vn -0.5811 0.0000 -0.1747
vn -0.0000 -1.2654 -0.1747
vn 0.0000 1.2654 -0.1747
vn 0.5811 -0.0000 -0.1747
vn -0.5254 0.0000 -0.4555
vn -0.0000 -1.1455 -0.4534
vn 0.0000 1.1455 -0.4534
vn 0.5254 -0.0000 -0.4555
vn 0.3506 -0.0000 -0.8044
vn -0.0000 -0.7740 -0.7983
vn -0.3506 0.0000 -0.8044
vn 0.0000 0.7740 -0.7983
# 20 vertex normals

vt 0.5391 0.9217 0.0000
vt 0.4609 0.9217 0.0000
vt 0.0000 0.0000 0.0000
vt 1.0000 0.0000 0.0000
vt 1.0000 1.0000 0.0000
vt 0.0000 1.0000 0.0000
vt 0.5000 1.0000 0.0000
vt 0.5000 1.0783 0.0000
vt 0.4217 1.0000 0.0000
vt 0.5000 0.9217 0.0000
vt 0.5783 1.0000 0.0000
# 11 texture coords

o Pyramid001
g Pyramid001
usemtl wire_135059008
s 4
f 1/1/1 2/2/2 3/3/3 4/4/4 
s 2
f 5/1/5 1/2/1 4/3/4 6/4/6 
s 16
f 7/1/7 5/2/5 6/3/6 8/4/8 
s 32
f 2/1/2 7/2/7 8/3/8 3/4/3 
s off
f 4/5/4 3/6/3 9/6/9 10/5/10 
f 3/6/3 8/3/8 11/3/11 9/6/9 
f 8/3/8 6/4/6 12/4/12 11/3/11 
f 6/4/6 4/5/4 10/5/10 12/4/12 
f 10/5/10 9/6/9 13/6/13 14/5/14 
f 9/6/9 11/3/11 15/3/15 13/6/13 
f 11/3/11 12/4/12 16/4/16 15/3/15 
f 12/4/12 10/5/10 14/5/14 16/4/16 
s 1
f 17/3/17 18/7/18 19/5/19 20/6/20 
s off
f 14/2/14 13/5/13 18/7/18 
f 13/5/13 20/6/20 19/5/19 
f 15/6/15 16/3/16 20/6/20 
f 16/3/16 18/7/18 17/3/17 
f 2/8/2 1/9/1 5/10/5 7/11/7 
f 16/3/16 17/3/17 20/6/20 
f 16/3/16 14/2/14 18/7/18 
f 13/5/13 15/6/15 20/6/20 
f 13/5/13 19/5/19 18/7/18 
# 14 polygons - 8 triangles

