# 3ds Max Wavefront OBJ Exporter v0.97b - (c)2007 guruware
# File Created: 24.01.2019 23:38:09

mtllib pectoral-fin-02.mtl

#
# object pectoral002
#

v  -0.1099 -0.7241 -0.0000
v  0.0000 -2.1282 -3.6442
v  0.1099 -0.7241 -0.0000
v  -0.1099 -0.0003 -0.5489
v  0.1099 -0.0003 -0.5489
v  0.0000 0.7235 -0.0000
v  0.0000 -0.0003 1.0697
# 7 vertices

vn -0.7108 -0.6007 0.3660
vn 0.0000 -0.4655 -0.8850
vn 0.7108 -0.6007 0.3660
vn -0.7670 0.5108 -0.3883
vn 0.7670 0.5108 -0.3883
vn 0.0000 0.9985 0.0542
vn 0.0000 0.1507 0.9886
# 7 vertex normals

vt 1.0000 0.0000 0.0000
vt 0.5000 1.0000 0.0000
vt 0.0000 0.0000 0.0000
vt 0.2500 0.5000 0.0000
vt 0.7500 0.5000 0.0000
vt 1.0000 1.0000 0.0000
vt 1.2883 0.7797 0.0000
vt -1.4616 0.5000 0.0000
vt 0.0000 0.5000 0.0000
vt 0.5000 0.5000 0.0000
vt -0.2883 0.2203 0.0000
vt 1.2883 0.2203 0.0000
# 12 texture coords

o pectoral002
g pectoral002
usemtl wire_087225143
s off
f 1/1/1 2/2/2 3/3/3 
f 2/3/2 4/4/4 5/5/5 
f 1/1/1 4/4/4 2/3/2 
f 6/6/6 4/4/4 7/7/7 
f 7/8/7 5/5/5 6/9/6 
f 1/3/1 3/1/3 7/10/7 
f 3/3/3 5/5/5 7/11/7 
f 3/3/3 2/1/2 5/5/5 
f 1/1/1 7/12/7 4/4/4 
f 4/4/4 6/9/6 5/5/5 
# 0 polygons - 10 triangles

